<?xml version="1.0" standalone="no"?>
<!DOCTYPE svg PUBLIC "-//W3C//DTD SVG 20010904//EN"
 "http://www.w3.org/TR/2001/REC-SVG-20010904/DTD/svg10.dtd">
<svg version="1.0" xmlns="http://www.w3.org/2000/svg"
 width="750.000000pt" height="750.000000pt" viewBox="0 0 750.000000 750.000000"
 preserveAspectRatio="xMidYMid meet">
<metadata>
Created by potrace 1.14, written by Peter Selinger 2001-2017
</metadata>
<g transform="translate(0.000000,750.000000) scale(0.100000,-0.100000)"
fill="#000000" stroke="none">
<path d="M5283 7313 c-5 -1 -575 -4 -1268 -6 -693 -3 -1270 -7 -1282 -10 -60
-16 -122 -69 -145 -126 -16 -39 -29 -103 -28 -131 1 -14 1 -31 1 -37 -2 -36
-3 -2219 -1 -2228 1 -5 1 -14 0 -20 -2 -13 -2 -87 0 -100 1 -5 1 -14 0 -20 -2
-13 -2 -87 0 -100 1 -5 1 -14 0 -20 -2 -13 -2 -87 0 -100 1 -5 1 -14 0 -20 -2
-13 -2 -87 0 -100 1 -5 1 -14 0 -20 -4 -22 -1 -95 5 -105 3 -5 2 -10 -3 -10
-5 0 -7 -12 -4 -26 l5 -25 -79 5 c-215 16 -330 20 -569 20 -243 -1 -381 -6
-465 -18 -19 -3 -55 -8 -80 -11 -25 -3 -83 -15 -130 -25 -47 -11 -96 -23 -110
-26 -58 -13 -190 -78 -243 -120 -32 -25 -75 -71 -95 -102 l-37 -57 -3 -125
c-4 -151 14 -215 81 -284 37 -37 92 -79 107 -81 3 -1 19 -8 35 -17 24 -12 122
-49 145 -53 3 -1 30 -7 60 -13 90 -20 112 -24 220 -37 212 -28 953 -21 1136
10 17 2 21 -2 20 -23 -1 -15 2 -37 6 -48 4 -12 4 -25 0 -28 -5 -6 -7 -76 -2
-101 1 -5 1 -14 0 -20 -2 -13 -2 -87 0 -100 1 -5 1 -14 0 -20 -2 -13 -2 -87 0
-100 1 -5 1 -14 0 -20 -2 -13 -2 -87 0 -100 1 -5 2 -12 1 -15 -6 -16 -5 -110
1 -110 4 0 5 -7 2 -14 -9 -24 -10 -146 -1 -146 5 0 5 -5 2 -10 -6 -10 -10
-124 -5 -145 1 -5 1 -13 0 -17 -6 -25 -4 -148 3 -148 5 0 5 -5 2 -10 -6 -10
-10 -124 -5 -145 1 -5 1 -13 0 -17 -6 -25 -4 -148 3 -148 5 0 5 -5 2 -10 -6
-10 -10 -124 -5 -145 1 -5 1 -13 0 -17 -6 -25 -4 -148 3 -148 5 0 5 -5 2 -10
-6 -10 -10 -124 -5 -145 1 -5 1 -13 0 -17 -6 -25 -4 -148 3 -148 5 0 5 -5 2
-10 -6 -10 -10 -124 -5 -145 1 -5 1 -13 0 -17 -6 -25 -4 -148 3 -148 5 0 5 -5
2 -10 -6 -10 -10 -124 -5 -145 1 -5 1 -13 0 -17 -5 -22 -4 -148 2 -148 4 0 3
-13 -2 -29 -4 -16 -7 -31 -5 -33 2 -2 6 -34 9 -71 11 -124 67 -215 154 -250
37 -15 97 -17 574 -16 508 0 535 1 572 20 49 24 83 55 104 94 42 80 42 71 42
1664 0 839 1 1526 3 1527 3 3 160 15 244 19 34 1 65 4 70 7 7 3 171 3 230 -1
13 0 24 -10 29 -23 4 -13 9 -25 13 -28 3 -3 20 -25 36 -50 53 -80 137 -169
220 -235 28 -22 53 -44 57 -50 4 -5 8 -6 8 -1 0 5 8 2 18 -6 27 -23 107 -57
170 -72 76 -17 204 -14 377 9 17 2 50 7 75 10 25 3 56 7 70 9 14 3 41 7 60 10
19 3 44 7 55 10 11 2 45 7 75 11 30 4 64 9 75 11 20 4 296 49 370 60 22 4 49
8 60 10 36 7 69 13 115 19 25 3 58 8 73 11 16 2 51 6 78 9 95 8 118 29 37 34
-24 1 -56 4 -73 6 -63 9 -92 13 -155 20 -36 4 -68 9 -71 11 -4 2 -33 6 -65 9
-33 3 -70 7 -84 10 -14 3 -43 7 -65 10 -22 3 -67 10 -100 15 -33 6 -73 13 -90
16 -16 3 -68 11 -113 19 -46 8 -87 14 -90 13 -4 0 -9 1 -12 2 -3 1 -18 4 -35
5 -16 2 -41 6 -55 9 -14 4 -65 9 -115 12 -82 6 -125 21 -125 43 0 4 8 7 18 8
9 1 36 6 60 12 23 6 59 14 80 17 20 3 44 7 53 10 9 2 34 7 55 10 22 2 46 6 54
9 8 2 39 7 69 10 30 4 62 8 72 10 10 2 44 6 76 10 32 3 65 8 73 10 8 2 40 7
70 10 30 2 66 7 79 10 13 2 49 7 80 10 31 4 67 8 81 10 14 3 43 7 65 10 79 12
340 57 343 60 3 3 -79 13 -163 20 -100 8 -208 17 -255 20 -74 5 -182 15 -230
20 -40 4 -101 10 -210 20 -19 1 -71 6 -115 9 -44 4 -105 9 -135 12 -30 2 -90
7 -133 9 -43 3 -87 10 -98 16 -25 13 -23 16 16 22 17 3 39 8 50 10 11 3 63 12
115 21 52 9 106 18 119 21 14 2 47 7 75 10 28 3 65 8 81 10 29 5 74 10 173 20
26 3 72 8 102 11 30 3 66 7 80 9 30 3 125 15 160 20 14 3 45 7 69 10 23 3 57
8 75 11 17 4 37 7 44 7 6 0 12 3 12 7 0 3 30 13 66 20 36 8 67 17 69 20 2 4
-22 8 -53 9 -31 2 -70 4 -87 6 -16 1 -70 6 -120 9 -49 4 -110 9 -135 12 -25 2
-79 6 -120 9 -41 2 -95 7 -120 10 -25 3 -79 8 -120 10 -41 3 -86 7 -100 10
-14 2 -50 7 -80 11 -30 3 -64 7 -75 9 -11 1 -47 6 -80 10 -33 4 -69 9 -80 11
-11 3 -36 7 -55 10 -19 3 -43 10 -52 15 -10 6 -19 5 -23 -1 -3 -5 -14 -10 -23
-10 -12 0 -7 6 13 20 30 20 62 29 35 9 -11 -8 9 -9 70 -5 87 5 107 8 207 25
32 5 74 12 93 15 19 3 46 8 60 11 13 2 42 7 65 10 22 3 47 8 55 10 8 2 37 6
63 9 27 3 52 8 57 11 4 3 25 7 46 9 22 3 50 7 64 10 14 3 41 7 60 10 19 3 44
7 55 10 11 2 40 7 65 11 62 10 80 14 115 22 17 3 42 6 57 6 15 0 25 4 22 9 -3
5 -12 7 -20 4 -7 -3 -16 -1 -19 4 -4 6 5 11 19 11 14 1 29 2 34 4 4 1 25 5 47
10 22 5 43 10 48 11 4 1 16 2 27 3 22 1 28 17 8 18 -28 1 -205 14 -233 17 -16
2 -61 7 -100 11 -38 4 -79 9 -90 11 -11 2 -54 6 -95 10 -41 3 -86 7 -100 9
-14 2 -50 7 -80 10 -30 3 -71 8 -90 10 -39 4 -110 13 -155 20 -16 3 -55 7 -85
10 -30 4 -68 8 -85 11 -127 19 -410 26 -492 11 -76 -14 -203 -63 -203 -79 0
-4 -6 -8 -12 -8 -22 0 -110 -100 -177 -200 -79 -116 -115 -152 -172 -167 -46
-12 -319 -11 -394 1 -22 4 -58 8 -80 10 l-40 3 0 694 0 694 24 53 c13 28 26
52 30 52 3 0 20 13 36 28 17 15 48 33 70 40 29 8 316 12 1142 12 606 0 1117 3
1135 7 74 14 138 85 165 183 4 14 8 325 9 692 2 689 0 729 -38 803 -21 39 -54
68 -102 91 -36 17 -81 18 -618 18 -318 1 -581 0 -585 -1z m817 -3177 c0 -2
-11 -6 -25 -8 -13 -3 -22 -1 -19 3 5 9 44 13 44 5z m-70 -10 c0 -2 -7 -7 -16
-10 -8 -3 -12 -2 -9 4 6 10 25 14 25 6z m-695 -486 c-3 -5 -11 -10 -16 -10 -6
0 -7 5 -4 10 3 6 11 10 16 10 6 0 7 -4 4 -10z"/>
</g>
</svg>
